<svg width="18.000000" height="18.000000" viewBox="0 0 18 18" fill="none" xmlns="http://www.w3.org/2000/svg" xmlns:xlink="http://www.w3.org/1999/xlink">
	<desc>
			Created with Pixso.
	</desc>
	<defs>
		<clipPath id="clip1_2513">
			<rect id="Icon" rx="-0.287500" width="17.424999" height="17.424999" transform="translate(0.287500 0.287500)" fill="white" fill-opacity="0"/>
		</clipPath>
	</defs>
	<g clip-path="url(#clip1_2513)">
		<path id="Icon" d="M9.26 2.96C9.61 2.61 10.18 2.61 10.53 2.96L15.93 8.36C16.28 8.71 16.28 9.28 15.93 9.63L10.53 15.03C10.18 15.38 9.61 15.38 9.26 15.03C8.91 14.68 8.91 14.11 9.26 13.76L13.12 9.9L2.69 9.9C2.2 9.9 1.8 9.49 1.8 9C1.8 8.5 2.2 8.1 2.69 8.1L13.12 8.1L9.26 4.23C8.91 3.88 8.91 3.31 9.26 2.96Z" fill="#FFFFFF" fill-opacity="1.000000" fill-rule="evenodd"/>
	</g>
</svg>
